<?xml version="1.0" standalone="no"?>
<!DOCTYPE svg PUBLIC "-//W3C//DTD SVG 20010904//EN"
 "http://www.w3.org/TR/2001/REC-SVG-20010904/DTD/svg10.dtd">
<svg version="1.0" xmlns="http://www.w3.org/2000/svg"
 width="16.000000pt" height="16.000000pt" viewBox="0 0 16.000000 16.000000"
 preserveAspectRatio="xMidYMid meet">
<metadata>
Created by potrace 1.11, written by Peter Selinger 2001-2013
</metadata>
<g transform="translate(0.000000,16.000000) scale(0.002286,-0.002286)"
fill="#000000" stroke="none">
<path d="M3245 5229 c-576 -89 -1054 -437 -1314 -956 -69 -140 -139 -356 -156
-488 -4 -27 -9 -61 -12 -75 -8 -44 -11 -348 -3 -392 4 -24 11 -68 14 -98 21
-178 121 -449 236 -635 136 -221 376 -461 580 -579 203 -118 459 -212 632
-232 29 -3 72 -10 96 -14 42 -8 344 -5 392 3 14 2 48 8 75 12 339 49 690 230
949 489 77 77 226 256 226 271 0 3 15 28 34 57 105 165 208 442 231 623 4 28
9 61 12 75 14 65 9 350 -7 460 -23 152 -58 287 -91 352 -5 10 -9 23 -9 29 0 7
-16 45 -35 85 -19 40 -35 75 -35 78 0 13 -118 197 -173 270 -86 113 -226 250
-348 341 -57 43 -111 80 -119 83 -8 3 -28 14 -43 25 -114 78 -424 190 -592
212 -27 4 -61 9 -75 12 -65 13 -360 8 -465 -8z"/>
</g>
</svg>
